<svg xmlns="http://www.w3.org/2000/svg" xmlns:xlink="http://www.w3.org/1999/xlink" width="112" zoomAndPan="magnify" viewBox="0 0 336 42" height="14" preserveAspectRatio="xMidYMid meet" version="1.0"><defs><g/><clipPath id="5eb8b2d00d"><path d="M 125 8.964844 L 150.722656 8.964844 L 150.722656 16 L 125 16 Z M 125 8.964844 " clip-rule="nonzero"/></clipPath><clipPath id="e0aad3effe"><path d="M 121.417969 25 L 147 25 L 147 32.40625 L 121.417969 32.40625 Z M 121.417969 25 " clip-rule="nonzero"/></clipPath></defs><g clip-path="url(#5eb8b2d00d)"><path fill="#3570ff" d="M 130.160156 8.964844 L 150.359375 8.964844 L 145.648438 15.339844 L 125.449219 15.339844 Z M 130.160156 8.964844 " fill-opacity="1" fill-rule="evenodd"/></g><path fill="#102437" d="M 125.449219 15.339844 L 135.546875 15.339844 L 130.4375 22.226562 L 126 16.105469 Z M 125.449219 15.339844 " fill-opacity="1" fill-rule="evenodd"/><g clip-path="url(#e0aad3effe)"><path fill="#3570ff" d="M 141.628906 32.050781 L 121.429688 32.050781 L 126.152344 25.675781 L 146.351562 25.675781 Z M 141.628906 32.050781 " fill-opacity="1" fill-rule="evenodd"/></g><path fill="#102437" d="M 146.351562 25.675781 L 136.25 25.675781 L 141.351562 18.789062 L 145.800781 24.910156 Z M 146.351562 25.675781 " fill-opacity="1" fill-rule="evenodd"/><g fill="#000000" fill-opacity="1"><g transform="translate(150.378494, 23.682806)"><g><path d="M 0.25 -1.171875 C 1.03125 -0.390625 2.171875 0.15625 3.75 0.15625 C 5.984375 0.15625 7.0625 -0.984375 7.0625 -2.5 C 7.0625 -4.34375 5.328125 -4.75 3.96875 -5.0625 C 3.015625 -5.28125 2.3125 -5.453125 2.3125 -6.015625 C 2.3125 -6.5 2.734375 -6.859375 3.53125 -6.859375 C 4.34375 -6.859375 5.234375 -6.5625 5.890625 -5.953125 L 6.875 -7.234375 C 6.0625 -7.984375 4.96875 -8.390625 3.65625 -8.390625 C 1.703125 -8.390625 0.515625 -7.265625 0.515625 -5.890625 C 0.515625 -4.046875 2.25 -3.6875 3.609375 -3.375 C 4.5625 -3.140625 5.28125 -2.9375 5.28125 -2.3125 C 5.28125 -1.84375 4.8125 -1.390625 3.84375 -1.390625 C 2.703125 -1.390625 1.796875 -1.890625 1.21875 -2.5 Z M 0.25 -1.171875 "/></g></g></g><g fill="#000000" fill-opacity="1"><g transform="translate(157.809383, 23.682806)"><g><path d="M 4.875 0 L 4.875 -3.375 L 8.046875 -8.265625 L 6.03125 -8.265625 L 4 -4.9375 L 1.953125 -8.265625 L -0.0625 -8.265625 L 3.125 -3.375 L 3.125 0 Z M 4.875 0 "/></g></g></g><g fill="#000000" fill-opacity="1"><g transform="translate(165.797593, 23.682806)"><g><path d="M 8.21875 0 L 8.21875 -8.265625 L 6.453125 -8.265625 L 6.453125 -2.90625 L 2.625 -8.265625 L 0.8125 -8.265625 L 0.8125 0 L 2.578125 0 L 2.578125 -5.546875 L 6.515625 0 Z M 8.21875 0 "/></g></g></g><g fill="#000000" fill-opacity="1"><g transform="translate(174.826123, 23.682806)"><g><path d="M 4.765625 0.15625 C 6.640625 0.15625 7.6875 -0.859375 8.28125 -1.890625 L 6.765625 -2.609375 C 6.421875 -1.9375 5.671875 -1.40625 4.765625 -1.40625 C 3.328125 -1.40625 2.234375 -2.5625 2.234375 -4.125 C 2.234375 -5.6875 3.328125 -6.84375 4.765625 -6.84375 C 5.671875 -6.84375 6.421875 -6.3125 6.765625 -5.640625 L 8.28125 -6.375 C 7.6875 -7.40625 6.640625 -8.40625 4.765625 -8.40625 C 2.34375 -8.40625 0.421875 -6.671875 0.421875 -4.125 C 0.421875 -1.59375 2.34375 0.15625 4.765625 0.15625 Z M 4.765625 0.15625 "/></g></g></g><g fill="#000000" fill-opacity="1"><g transform="translate(183.334499, 23.682806)"><g><path d="M 5.34375 0 L 8.53125 -8.265625 L 6.515625 -8.265625 L 4.234375 -1.90625 L 1.953125 -8.265625 L -0.0625 -8.265625 L 3.140625 0 Z M 5.34375 0 "/></g></g></g><g fill="#000000" fill-opacity="1"><g transform="translate(191.80572, 23.682806)"><g><path d="M 2.578125 0 L 2.578125 -8.265625 L 0.8125 -8.265625 L 0.8125 0 Z M 2.578125 0 "/></g></g></g><g fill="#000000" fill-opacity="1"><g transform="translate(195.199155, 23.682806)"><g><path d="M 0.421875 -4.125 C 0.421875 -1.640625 2.25 0.15625 4.734375 0.15625 C 7.234375 0.15625 9.0625 -1.640625 9.0625 -4.125 C 9.0625 -6.609375 7.234375 -8.40625 4.734375 -8.40625 C 2.25 -8.40625 0.421875 -6.609375 0.421875 -4.125 Z M 7.25 -4.125 C 7.25 -2.59375 6.25 -1.40625 4.734375 -1.40625 C 3.203125 -1.40625 2.234375 -2.59375 2.234375 -4.125 C 2.234375 -5.671875 3.203125 -6.84375 4.734375 -6.84375 C 6.25 -6.84375 7.25 -5.671875 7.25 -4.125 Z M 7.25 -4.125 "/></g></g></g></svg>
