<svg xmlns="http://www.w3.org/2000/svg" xmlns:xlink="http://www.w3.org/1999/xlink" width="500" zoomAndPan="magnify" viewBox="0 0 375 374.999991" height="500" preserveAspectRatio="xMidYMid meet" version="1.0"><defs><g/><clipPath id="b83cb2164c"><path d="M 133 100.386719 L 262.621094 100.386719 L 262.621094 134 L 133 134 Z M 133 100.386719 " clip-rule="nonzero"/></clipPath><clipPath id="67153e1001"><path d="M 112.621094 186 L 242 186 L 242 220.386719 L 112.621094 220.386719 Z M 112.621094 186 " clip-rule="nonzero"/></clipPath></defs><rect x="-37.5" width="450" fill="#ffffff" y="-37.499999" height="449.999989" fill-opacity="1"/><rect x="-37.5" width="450" fill="#ffffff" y="-37.499999" height="449.999989" fill-opacity="1"/><g clip-path="url(#b83cb2164c)"><path fill="#3570ff" d="M 157.917969 100.386719 L 262.582031 100.386719 L 238.160156 133.429688 L 133.496094 133.429688 Z M 157.917969 100.386719 " fill-opacity="1" fill-rule="evenodd"/></g><path fill="#102437" d="M 133.496094 133.429688 L 185.828125 133.429688 L 159.347656 169.105469 L 136.351562 137.382812 Z M 133.496094 133.429688 " fill-opacity="1" fill-rule="evenodd"/><g clip-path="url(#67153e1001)"><path fill="#3570ff" d="M 217.332031 220.011719 L 112.671875 220.011719 L 137.144531 186.972656 L 241.808594 186.972656 Z M 217.332031 220.011719 " fill-opacity="1" fill-rule="evenodd"/></g><path fill="#102437" d="M 241.808594 186.972656 L 189.476562 186.972656 L 215.90625 151.292969 L 238.953125 183.019531 Z M 241.808594 186.972656 " fill-opacity="1" fill-rule="evenodd"/><g fill="#102437" fill-opacity="1"><g transform="translate(82.277343, 273.177476)"><g><path d="M 0.953125 -4.515625 C 3.984375 -1.484375 8.40625 0.578125 14.546875 0.578125 C 23.1875 0.578125 27.359375 -3.84375 27.359375 -9.703125 C 27.359375 -16.796875 20.640625 -18.390625 15.359375 -19.578125 C 11.65625 -20.453125 8.96875 -21.125 8.96875 -23.28125 C 8.96875 -25.203125 10.609375 -26.546875 13.6875 -26.546875 C 16.796875 -26.546875 20.25 -25.4375 22.84375 -23.046875 L 26.640625 -28.03125 C 23.46875 -30.953125 19.25 -32.5 14.15625 -32.5 C 6.625 -32.5 2.015625 -28.171875 2.015625 -22.84375 C 2.015625 -15.703125 8.734375 -14.25 13.96875 -13.0625 C 17.65625 -12.1875 20.453125 -11.375 20.453125 -8.96875 C 20.453125 -7.15625 18.625 -5.375 14.875 -5.375 C 10.46875 -5.375 6.953125 -7.34375 4.703125 -9.703125 Z M 0.953125 -4.515625 "/></g></g></g><g fill="#102437" fill-opacity="1"><g transform="translate(111.077291, 273.177476)"><g><path d="M 18.90625 0 L 18.90625 -13.109375 L 31.15625 -32.015625 L 23.375 -32.015625 L 15.5 -19.15625 L 7.53125 -32.015625 L -0.234375 -32.015625 L 12.09375 -13.109375 L 12.09375 0 Z M 18.90625 0 "/></g></g></g><g fill="#102437" fill-opacity="1"><g transform="translate(142.03723, 273.177476)"><g><path d="M 31.828125 0 L 31.828125 -32.015625 L 25.015625 -32.015625 L 25.015625 -11.28125 L 10.171875 -32.015625 L 3.171875 -32.015625 L 3.171875 0 L 9.984375 0 L 9.984375 -21.5 L 25.25 0 Z M 31.828125 0 "/></g></g></g><g fill="#102437" fill-opacity="1"><g transform="translate(177.029163, 273.177476)"><g><path d="M 18.4375 0.578125 C 25.734375 0.578125 29.765625 -3.3125 32.0625 -7.296875 L 26.203125 -10.125 C 24.859375 -7.484375 21.984375 -5.46875 18.4375 -5.46875 C 12.859375 -5.46875 8.640625 -9.9375 8.640625 -15.984375 C 8.640625 -22.03125 12.859375 -26.5 18.4375 -26.5 C 21.984375 -26.5 24.859375 -24.4375 26.203125 -21.84375 L 32.0625 -24.71875 C 29.8125 -28.703125 25.734375 -32.546875 18.4375 -32.546875 C 9.078125 -32.546875 1.625 -25.828125 1.625 -15.984375 C 1.625 -6.140625 9.078125 0.578125 18.4375 0.578125 Z M 18.4375 0.578125 "/></g></g></g><g fill="#102437" fill-opacity="1"><g transform="translate(210.005106, 273.177476)"><g><path d="M 20.6875 0 L 33.03125 -32.015625 L 25.25 -32.015625 L 16.421875 -7.390625 L 7.53125 -32.015625 L -0.234375 -32.015625 L 12.140625 0 Z M 20.6875 0 "/></g></g></g><g fill="#102437" fill-opacity="1"><g transform="translate(242.837047, 273.177476)"><g><path d="M 9.984375 0 L 9.984375 -32.015625 L 3.171875 -32.015625 L 3.171875 0 Z M 9.984375 0 "/></g></g></g><g fill="#102437" fill-opacity="1"><g transform="translate(255.98902, 273.177476)"><g><path d="M 1.625 -15.984375 C 1.625 -6.34375 8.6875 0.578125 18.34375 0.578125 C 28.03125 0.578125 35.09375 -6.34375 35.09375 -15.984375 C 35.09375 -25.625 28.03125 -32.546875 18.34375 -32.546875 C 8.6875 -32.546875 1.625 -25.625 1.625 -15.984375 Z M 28.078125 -15.984375 C 28.078125 -10.03125 24.234375 -5.46875 18.34375 -5.46875 C 12.4375 -5.46875 8.640625 -10.03125 8.640625 -15.984375 C 8.640625 -21.984375 12.4375 -26.5 18.34375 -26.5 C 24.234375 -26.5 28.078125 -21.984375 28.078125 -15.984375 Z M 28.078125 -15.984375 "/></g></g></g></svg>